{
    "asset" : {
        "generator" : "Khronos glTF Blender I/O v0.9.36",
        "version" : "2.0"
    },
    "scene" : 0,
    "scenes" : [
        {
            "name" : "Scene",
            "nodes" : [
                0,
                1,
                2,
                3,
                4
            ]
        }
    ],
    "nodes" : [
        {
            "mesh" : 0,
            "name" : "Trigger",
            "rotation" : [
                0,
                1,
                0,
                7.549790126404332e-08
            ],
            "translation" : [
                0,
                1.3784539699554443,
                1.7677198648452759
            ]
        },
        {
            "mesh" : 1,
            "name" : "Body",
            "rotation" : [
                0,
                1,
                0,
                7.549790126404332e-08
            ],
            "translation" : [
                0,
                -0.8215460777282715,
                1.7677198648452759
            ]
        },
        {
            "mesh" : 2,
            "name" : "Slide",
            "rotation" : [
                0,
                1,
                0,
                7.549790126404332e-08
            ],
            "translation" : [
                0,
                2.1784539222717285,
                1.7677198648452759
            ]
        },
        {
            "mesh" : 3,
            "name" : "Hammer",
            "rotation" : [
                0,
                1,
                0,
                7.549790126404332e-08
            ],
            "translation" : [
                0,
                1.4784537553787231,
                -1.5322799682617188
            ]
        },
        {
            "mesh" : 4,
            "name" : "Magazine",
            "rotation" : [
                0,
                1,
                0,
                7.549790126404332e-08
            ],
            "translation" : [
                0,
                -0.8215460777282715,
                -0.23228001594543457
            ]
        }
    ],
    "materials" : [
        {
            "doubleSided" : true,
            "name" : "Material.001",
            "pbrMetallicRoughness" : {}
        }
    ],
    "meshes" : [
        {
            "name" : "Cube.009",
            "primitives" : [
                {
                    "attributes" : {
                        "POSITION" : 0,
                        "NORMAL" : 1,
                        "TEXCOORD_0" : 2
                    },
                    "indices" : 3,
                    "material" : 0
                }
            ]
        },
        {
            "name" : "Cube.000",
            "primitives" : [
                {
                    "attributes" : {
                        "POSITION" : 4,
                        "NORMAL" : 5,
                        "TEXCOORD_0" : 6
                    },
                    "indices" : 7,
                    "material" : 0
                }
            ]
        },
        {
            "name" : "Cube.001",
            "primitives" : [
                {
                    "attributes" : {
                        "POSITION" : 8,
                        "NORMAL" : 9,
                        "TEXCOORD_0" : 10
                    },
                    "indices" : 11,
                    "material" : 0
                }
            ]
        },
        {
            "name" : "Cube.002",
            "primitives" : [
                {
                    "attributes" : {
                        "POSITION" : 12,
                        "NORMAL" : 13,
                        "TEXCOORD_0" : 14
                    },
                    "indices" : 15,
                    "material" : 0
                }
            ]
        },
        {
            "name" : "Cube.003",
            "primitives" : [
                {
                    "attributes" : {
                        "POSITION" : 16,
                        "NORMAL" : 17,
                        "TEXCOORD_0" : 18
                    },
                    "indices" : 19,
                    "material" : 0
                }
            ]
        }
    ],
    "accessors" : [
        {
            "bufferView" : 0,
            "componentType" : 5126,
            "count" : 70,
            "max" : [
                0.13999997079372406,
                0.4000000059604645,
                0.5999999642372131
            ],
            "min" : [
                -0.13999997079372406,
                -1.1692699193954468,
                -0.6063096523284912
            ],
            "type" : "VEC3"
        },
        {
            "bufferView" : 1,
            "componentType" : 5126,
            "count" : 70,
            "type" : "VEC3"
        },
        {
            "bufferView" : 2,
            "componentType" : 5126,
            "count" : 70,
            "type" : "VEC2"
        },
        {
            "bufferView" : 3,
            "componentType" : 5123,
            "count" : 168,
            "type" : "SCALAR"
        },
        {
            "bufferView" : 4,
            "componentType" : 5126,
            "count" : 822,
            "max" : [
                0.6184440851211548,
                3.408001661300659,
                4.108137130737305
            ],
            "min" : [
                -0.6203199625015259,
                -1.281150460243225,
                -3.301685333251953
            ],
            "type" : "VEC3"
        },
        {
            "bufferView" : 5,
            "componentType" : 5126,
            "count" : 822,
            "type" : "VEC3"
        },
        {
            "bufferView" : 6,
            "componentType" : 5126,
            "count" : 822,
            "type" : "VEC2"
        },
        {
            "bufferView" : 7,
            "componentType" : 5123,
            "count" : 2178,
            "type" : "SCALAR"
        },
        {
            "bufferView" : 8,
            "componentType" : 5126,
            "count" : 1605,
            "max" : [
                0.5950692296028137,
                0.6949977278709412,
                3.7432806491851807
            ],
            "min" : [
                -0.669173002243042,
                -0.6731599569320679,
                -3.253164529800415
            ],
            "type" : "VEC3"
        },
        {
            "bufferView" : 9,
            "componentType" : 5126,
            "count" : 1605,
            "type" : "VEC3"
        },
        {
            "bufferView" : 10,
            "componentType" : 5126,
            "count" : 1605,
            "type" : "VEC2"
        },
        {
            "bufferView" : 11,
            "componentType" : 5123,
            "count" : 4032,
            "type" : "SCALAR"
        },
        {
            "bufferView" : 12,
            "componentType" : 5126,
            "count" : 254,
            "max" : [
                0.2041223794221878,
                1.2250261306762695,
                0.4189792275428772
            ],
            "min" : [
                -0.20412172377109528,
                -0.39968886971473694,
                -0.3584006726741791
            ],
            "type" : "VEC3"
        },
        {
            "bufferView" : 13,
            "componentType" : 5126,
            "count" : 254,
            "type" : "VEC3"
        },
        {
            "bufferView" : 14,
            "componentType" : 5126,
            "count" : 254,
            "type" : "VEC2"
        },
        {
            "bufferView" : 15,
            "componentType" : 5123,
            "count" : 738,
            "type" : "SCALAR"
        },
        {
            "bufferView" : 16,
            "componentType" : 5126,
            "count" : 96,
            "max" : [
                0.484000027179718,
                2.402672290802002,
                1.2051756381988525
            ],
            "min" : [
                -0.484000027179718,
                -1.9499993324279785,
                -1.0700874328613281
            ],
            "type" : "VEC3"
        },
        {
            "bufferView" : 17,
            "componentType" : 5126,
            "count" : 96,
            "type" : "VEC3"
        },
        {
            "bufferView" : 18,
            "componentType" : 5126,
            "count" : 96,
            "type" : "VEC2"
        },
        {
            "bufferView" : 19,
            "componentType" : 5123,
            "count" : 240,
            "type" : "SCALAR"
        }
    ],
    "bufferViews" : [
        {
            "buffer" : 0,
            "byteLength" : 840,
            "byteOffset" : 0
        },
        {
            "buffer" : 0,
            "byteLength" : 840,
            "byteOffset" : 840
        },
        {
            "buffer" : 0,
            "byteLength" : 560,
            "byteOffset" : 1680
        },
        {
            "buffer" : 0,
            "byteLength" : 336,
            "byteOffset" : 2240
        },
        {
            "buffer" : 0,
            "byteLength" : 9864,
            "byteOffset" : 2576
        },
        {
            "buffer" : 0,
            "byteLength" : 9864,
            "byteOffset" : 12440
        },
        {
            "buffer" : 0,
            "byteLength" : 6576,
            "byteOffset" : 22304
        },
        {
            "buffer" : 0,
            "byteLength" : 4356,
            "byteOffset" : 28880
        },
        {
            "buffer" : 0,
            "byteLength" : 19260,
            "byteOffset" : 33236
        },
        {
            "buffer" : 0,
            "byteLength" : 19260,
            "byteOffset" : 52496
        },
        {
            "buffer" : 0,
            "byteLength" : 12840,
            "byteOffset" : 71756
        },
        {
            "buffer" : 0,
            "byteLength" : 8064,
            "byteOffset" : 84596
        },
        {
            "buffer" : 0,
            "byteLength" : 3048,
            "byteOffset" : 92660
        },
        {
            "buffer" : 0,
            "byteLength" : 3048,
            "byteOffset" : 95708
        },
        {
            "buffer" : 0,
            "byteLength" : 2032,
            "byteOffset" : 98756
        },
        {
            "buffer" : 0,
            "byteLength" : 1476,
            "byteOffset" : 100788
        },
        {
            "buffer" : 0,
            "byteLength" : 1152,
            "byteOffset" : 102264
        },
        {
            "buffer" : 0,
            "byteLength" : 1152,
            "byteOffset" : 103416
        },
        {
            "buffer" : 0,
            "byteLength" : 768,
            "byteOffset" : 104568
        },
        {
            "buffer" : 0,
            "byteLength" : 480,
            "byteOffset" : 105336
        }
    ],
    "buffers" : [
        {
            "byteLength" : 105816,
            "uri" : "data:application/octet-stream;base64,"
        }
    ]
}
